<?xml version="1.0" encoding="utf-8"?>
<!-- Generator: Adobe Illustrator 15.0.0, SVG Export Plug-In . SVG Version: 6.00 Build 0)  -->
<!DOCTYPE svg PUBLIC "-//W3C//DTD SVG 1.1//EN" "http://www.w3.org/Graphics/SVG/1.1/DTD/svg11.dtd">
<svg version="1.1" id="Layer_1" xmlns="http://www.w3.org/2000/svg" xmlns:xlink="http://www.w3.org/1999/xlink" x="0px" y="0px"
	 width="1024px" height="297px" viewBox="0 0 1024 297" enable-background="new 0 0 1024 297" xml:space="preserve">
<rect x="-2" y="-0.5" stroke="#FFFFFF" stroke-miterlimit="10" width="1026" height="298"/>
<g>
	<g>
		<path fill="#FFFFFF" stroke="#FFFFFF" stroke-width="1.0207" stroke-miterlimit="10" d="M58.725,215.124V89.868
			c0-2.347,1.176-3.526,3.53-3.526c2.345,0,3.521,1.18,3.521,3.526v3.411c4.778-4.626,10.431-6.937,16.956-6.937h50.058
			c6.594,0,12.246,2.293,16.945,6.879c4.702,4.592,7.055,10.112,7.055,16.555v39.928c0,6.521-2.37,12.062-7.105,16.609
			c-4.745,4.549-10.38,6.834-16.899,6.834H82.731c-6.603,0-12.255-2.32-16.956-6.944v48.917c0,2.351-1.176,3.529-3.521,3.529
			C59.9,218.655,58.725,217.479,58.725,215.124z M65.775,109.779v39.928c0,4.479,1.652,8.324,4.949,11.549
			c3.297,3.224,7.306,4.834,12.007,4.834h50.058c4.624,0,8.605-1.604,11.948-4.834c3.332-3.216,5.001-7.069,5.001-11.549v-39.928
			c0-4.477-1.644-8.322-4.949-11.55c-3.297-3.218-7.297-4.837-11.996-4.837H82.731c-4.635,0-8.617,1.614-11.949,4.837
			C67.444,101.458,65.775,105.307,65.775,109.779z"/>
		<path fill="#FFFFFF" stroke="#FFFFFF" stroke-width="1.0207" stroke-miterlimit="10" d="M276.478,109.779v39.817
			c0,6.449-2.354,11.968-7.056,16.553c-4.7,4.587-10.352,6.877-16.946,6.877h-50.062c-6.451,0-12.058-2.272-16.837-6.824
			c-4.78-4.548-7.17-10.089-7.17-16.606v-39.821c0-6.522,2.346-12.059,7.046-16.61c4.702-4.552,10.354-6.827,16.957-6.827h50.057
			c6.515,0,12.15,2.275,16.898,6.827C274.106,97.721,276.478,103.258,276.478,109.779z M269.418,109.779
			c0-4.551-1.671-8.418-5.002-11.602c-3.342-3.188-7.324-4.78-11.949-4.78h-50.053c-4.702,0-8.707,1.614-12.007,4.838
			c-3.297,3.222-4.949,7.071-4.949,11.548v39.82c0,4.475,1.672,8.32,5.012,11.545c3.333,3.229,7.313,4.838,11.948,4.838h50.058
			c4.699,0,8.699-1.609,11.995-4.838c3.307-3.221,4.951-7.07,4.951-11.545v-39.825H269.418z"/>
		<path fill="#FFFFFF" stroke="#FFFFFF" stroke-width="1.0207" stroke-miterlimit="10" d="M305.14,89.868v3.301
			c4.702-4.551,10.354-6.828,16.957-6.828h32.989c6.525,0,12.148,2.276,16.896,6.828c4.737,4.552,7.109,10.088,7.109,16.61v59.729
			c0,2.351-1.173,3.527-3.528,3.527c-2.347,0-3.521-1.177-3.521-3.527v-59.729c0-4.551-1.67-8.418-5.014-11.602
			c-3.345-3.184-7.322-4.78-11.951-4.78h-32.984c-4.697,0-8.706,1.614-12.003,4.838c-3.3,3.222-4.954,7.071-4.954,11.548v59.724
			c0,2.354-1.174,3.527-3.52,3.527c-2.354,0-3.531-1.173-3.531-3.527v-79.64c0-2.347,1.177-3.526,3.531-3.526
			C303.967,86.342,305.14,87.521,305.14,89.868z"/>
		<path fill="#FFFFFF" stroke="#FFFFFF" stroke-width="1.0207" stroke-miterlimit="10" d="M397.178,86.342h7.854V64.274
			c0-2.351,1.173-3.531,3.528-3.531c2.347,0,3.528,1.18,3.528,3.531v22.067h21.495c2.356,0,3.529,1.18,3.529,3.526
			c0,2.355-1.173,3.529-3.529,3.529h-21.495v76.111c0,2.351-1.187,3.527-3.528,3.527c-2.355,0-3.532-1.177-3.532-3.527V93.397h-7.85
			c-2.347,0-3.52-1.174-3.52-3.529C393.658,87.521,394.831,86.342,397.178,86.342z"/>
		<path fill="#FFFFFF" stroke="#FFFFFF" stroke-width="1.0207" stroke-miterlimit="10" d="M525.742,173.035h-50.058
			c-6.447,0-12.059-2.278-16.837-6.824c-4.779-4.557-7.169-10.094-7.169-16.615v-39.817c0-6.521,2.343-12.058,7.045-16.61
			c4.696-4.551,10.35-6.828,16.952-6.828h50.059c6.516,0,12.15,2.276,16.9,6.828c4.735,4.552,7.107,10.088,7.107,16.61
			c0,6.449-2.354,11.967-7.053,16.552c-4.701,4.586-10.354,6.879-16.947,6.879h-67.015v16.385c0,4.474,1.671,8.32,5.01,11.544
			c3.332,3.224,7.314,4.838,11.952,4.838h50.053c2.346,0,3.532,1.183,3.532,3.529C529.27,171.858,528.088,173.035,525.742,173.035z
			 M458.728,126.16h67.015c4.701,0,8.701-1.607,11.999-4.836c3.305-3.222,4.948-7.071,4.948-11.548
			c0-4.552-1.669-8.418-5.006-11.603c-3.339-3.188-7.321-4.781-11.949-4.781h-50.059c-4.697,0-8.705,1.614-12.003,4.837
			c-3.296,3.224-4.949,7.074-4.949,11.55v16.381H458.728z"/>
	</g>
	<g>
		<line fill="none" stroke="#FFFFFF" stroke-width="20" stroke-miterlimit="10" x1="609.5" y1="147" x2="964.5" y2="147"/>
		<g>
			<path fill="none" stroke="#FFFFFF" stroke-width="20" stroke-miterlimit="10" d="M690.473,219
				c0-79.698,45.318-144.189,101.323-144.189"/>
			<path fill="none" stroke="#FFFFFF" stroke-width="20" stroke-miterlimit="10" d="M888.343,219
				c0-79.698-45.319-144.189-101.323-144.189"/>
		</g>
	</g>
	<g>
		<path fill="#FFFFFF" d="M93.75,191.146h-9.492c-0.973,0-1.799,0.296-2.479,0.888s-1.02,1.292-1.02,2.101v12.305
			c0,0.797,0.34,1.491,1.02,2.083s1.506,0.888,2.479,0.888h13.553c0.363,0,0.545,0.182,0.545,0.545s-0.182,0.545-0.545,0.545H84.258
			c-1.242,0-2.317-0.393-3.226-1.178s-1.362-1.746-1.362-2.883v-12.305c0-1.148,0.454-2.115,1.362-2.9s1.983-1.178,3.226-1.178
			h9.492c0.363,0,0.545,0.182,0.545,0.545S94.113,191.146,93.75,191.146z"/>
		<path fill="#FFFFFF" d="M115.758,200.727v6.152c0,0.996-0.363,1.849-1.09,2.558s-1.6,1.063-2.619,1.063h-7.734
			c-0.996,0-1.863-0.352-2.602-1.055s-1.107-1.559-1.107-2.566v-6.152c0-1.008,0.363-1.863,1.09-2.566s1.6-1.055,2.619-1.055h7.734
			c1.008,0,1.878,0.352,2.61,1.055S115.758,199.719,115.758,200.727z M114.668,200.727c0-0.703-0.258-1.301-0.773-1.793
			s-1.131-0.738-1.846-0.738h-7.734c-0.727,0-1.345,0.249-1.854,0.747s-0.765,1.093-0.765,1.784v6.152
			c0,0.691,0.258,1.286,0.773,1.784s1.131,0.747,1.846,0.747h7.734c0.727,0,1.345-0.249,1.854-0.747s0.765-1.093,0.765-1.784
			V200.727z"/>
		<path fill="#FFFFFF" d="M120.188,197.65v0.51c0.727-0.703,1.6-1.055,2.619-1.055h5.098c1.008,0,1.878,0.352,2.61,1.055
			s1.099,1.559,1.099,2.566v9.229c0,0.363-0.182,0.545-0.545,0.545s-0.545-0.182-0.545-0.545v-9.229
			c0-0.703-0.258-1.301-0.773-1.793s-1.131-0.738-1.846-0.738h-5.098c-0.727,0-1.345,0.249-1.854,0.747s-0.765,1.093-0.765,1.784
			v9.229c0,0.363-0.182,0.545-0.545,0.545s-0.545-0.182-0.545-0.545V197.65c0-0.363,0.182-0.545,0.545-0.545
			S120.188,197.287,120.188,197.65z"/>
		<path fill="#FFFFFF" d="M136.043,197.65v0.51c0.727-0.703,1.6-1.055,2.619-1.055h5.098c1.008,0,1.878,0.352,2.61,1.055
			s1.099,1.559,1.099,2.566v9.229c0,0.363-0.182,0.545-0.545,0.545s-0.545-0.182-0.545-0.545v-9.229
			c0-0.703-0.258-1.301-0.773-1.793s-1.131-0.738-1.846-0.738h-5.098c-0.727,0-1.345,0.249-1.854,0.747s-0.765,1.093-0.765,1.784
			v9.229c0,0.363-0.182,0.545-0.545,0.545s-0.545-0.182-0.545-0.545V197.65c0-0.363,0.182-0.545,0.545-0.545
			S136.043,197.287,136.043,197.65z"/>
		<path fill="#FFFFFF" d="M162.252,210.5h-7.734c-0.996,0-1.863-0.352-2.602-1.055s-1.107-1.559-1.107-2.566v-6.152
			c0-1.008,0.363-1.863,1.09-2.566s1.6-1.055,2.619-1.055h7.734c1.008,0,1.878,0.352,2.61,1.055s1.099,1.559,1.099,2.566
			c0,0.996-0.363,1.849-1.09,2.558s-1.6,1.063-2.619,1.063h-10.354v2.531c0,0.691,0.258,1.286,0.773,1.784s1.131,0.747,1.846,0.747
			h7.734c0.363,0,0.545,0.182,0.545,0.545S162.615,210.5,162.252,210.5z M151.898,203.258h10.354c0.727,0,1.345-0.249,1.854-0.747
			s0.765-1.093,0.765-1.784c0-0.703-0.258-1.301-0.773-1.793s-1.131-0.738-1.846-0.738h-7.734c-0.727,0-1.345,0.249-1.854,0.747
			s-0.765,1.093-0.765,1.784V203.258z"/>
		<path fill="#FFFFFF" d="M180.217,198.195h-7.734c-0.727,0-1.345,0.249-1.854,0.747s-0.765,1.093-0.765,1.784v6.152
			c0,0.691,0.258,1.286,0.773,1.784s1.131,0.747,1.846,0.747h10.898c0.363,0,0.545,0.182,0.545,0.545s-0.182,0.545-0.545,0.545
			h-10.898c-0.996,0-1.863-0.352-2.602-1.055s-1.107-1.559-1.107-2.566v-6.152c0-1.008,0.363-1.863,1.09-2.566
			s1.6-1.055,2.619-1.055h7.734c0.363,0,0.545,0.182,0.545,0.545S180.58,198.195,180.217,198.195z"/>
		<path fill="#FFFFFF" d="M185.631,197.105h1.213v-3.41c0-0.363,0.182-0.545,0.545-0.545s0.545,0.182,0.545,0.545v3.41h3.322
			c0.363,0,0.545,0.182,0.545,0.545s-0.182,0.545-0.545,0.545h-3.322v11.76c0,0.363-0.182,0.545-0.545,0.545
			s-0.545-0.182-0.545-0.545v-11.76h-1.213c-0.363,0-0.545-0.182-0.545-0.545S185.268,197.105,185.631,197.105z"/>
		<path fill="#FFFFFF" d="M195.791,194.451c0,0.586-0.287,0.879-0.861,0.879c-0.586,0-0.879-0.293-0.879-0.879
			c0-0.574,0.293-0.861,0.879-0.861C195.504,193.59,195.791,193.877,195.791,194.451z M194.385,209.955V197.65
			c0-0.363,0.182-0.545,0.545-0.545s0.545,0.182,0.545,0.545v12.305c0,0.363-0.182,0.545-0.545,0.545
			S194.385,210.318,194.385,209.955z"/>
		<path fill="#FFFFFF" d="M200.221,197.65v0.51c0.727-0.703,1.6-1.055,2.619-1.055h5.098c1.008,0,1.878,0.352,2.61,1.055
			s1.099,1.559,1.099,2.566v9.229c0,0.363-0.182,0.545-0.545,0.545s-0.545-0.182-0.545-0.545v-9.229
			c0-0.703-0.258-1.301-0.773-1.793s-1.131-0.738-1.846-0.738h-5.098c-0.727,0-1.345,0.249-1.854,0.747s-0.765,1.093-0.765,1.784
			v9.229c0,0.363-0.182,0.545-0.545,0.545s-0.545-0.182-0.545-0.545V197.65c0-0.363,0.182-0.545,0.545-0.545
			S200.221,197.287,200.221,197.65z"/>
		<path fill="#FFFFFF" d="M230.139,197.65v15.398c0,1.008-0.366,1.863-1.099,2.566s-1.603,1.055-2.61,1.055h-7.734
			c-0.363,0-0.545-0.182-0.545-0.545s0.182-0.545,0.545-0.545h7.734c0.715,0,1.33-0.249,1.846-0.747s0.773-1.093,0.773-1.784v-3.604
			c-0.727,0.715-1.6,1.072-2.619,1.072h-7.734c-0.996,0-1.863-0.352-2.602-1.055s-1.107-1.559-1.107-2.566v-6.152
			c0-1.008,0.363-1.866,1.09-2.575s1.6-1.063,2.619-1.063h7.734c1.02,0,1.893,0.357,2.619,1.072v-0.527
			c0-0.363,0.182-0.545,0.545-0.545S230.139,197.287,230.139,197.65z M229.049,206.896v-6.152c0-0.703-0.258-1.304-0.773-1.802
			s-1.131-0.747-1.846-0.747h-7.734c-0.727,0-1.345,0.249-1.854,0.747s-0.765,1.099-0.765,1.802v6.152
			c0,0.691,0.258,1.286,0.773,1.784s1.131,0.747,1.846,0.747h7.734c0.727,0,1.345-0.249,1.854-0.747
			S229.049,207.588,229.049,206.896z"/>
		<path fill="#FFFFFF" d="M245.062,190.057h17.596c0.363,0,0.545,0.182,0.545,0.545s-0.182,0.545-0.545,0.545h-8.262v18.809
			c0,0.363-0.182,0.545-0.545,0.545s-0.545-0.182-0.545-0.545v-18.809h-8.244c-0.363,0-0.545-0.182-0.545-0.545
			S244.699,190.057,245.062,190.057z"/>
		<path fill="#FFFFFF" d="M266.543,190.602v7.559c0.727-0.703,1.6-1.055,2.619-1.055h7.734c1.008,0,1.878,0.352,2.61,1.055
			s1.099,1.559,1.099,2.566v9.229c0,0.363-0.182,0.545-0.545,0.545s-0.545-0.182-0.545-0.545v-9.229
			c0-0.703-0.258-1.301-0.773-1.793s-1.131-0.738-1.846-0.738h-7.734c-0.727,0-1.345,0.249-1.854,0.747s-0.765,1.093-0.765,1.784
			v9.229c0,0.363-0.182,0.545-0.545,0.545s-0.545-0.182-0.545-0.545v-19.354c0-0.363,0.182-0.545,0.545-0.545
			S266.543,190.238,266.543,190.602z"/>
		<path fill="#FFFFFF" d="M285.686,194.451c0,0.586-0.287,0.879-0.861,0.879c-0.586,0-0.879-0.293-0.879-0.879
			c0-0.574,0.293-0.861,0.879-0.861C285.398,193.59,285.686,193.877,285.686,194.451z M284.279,209.955V197.65
			c0-0.363,0.182-0.545,0.545-0.545s0.545,0.182,0.545,0.545v12.305c0,0.363-0.182,0.545-0.545,0.545
			S284.279,210.318,284.279,209.955z"/>
		<path fill="#FFFFFF" d="M290.115,197.65v0.51c0.727-0.703,1.6-1.055,2.619-1.055h5.098c1.008,0,1.878,0.352,2.61,1.055
			s1.099,1.559,1.099,2.566v9.229c0,0.363-0.182,0.545-0.545,0.545s-0.545-0.182-0.545-0.545v-9.229
			c0-0.703-0.258-1.301-0.773-1.793s-1.131-0.738-1.846-0.738h-5.098c-0.727,0-1.345,0.249-1.854,0.747s-0.765,1.093-0.765,1.784
			v9.229c0,0.363-0.182,0.545-0.545,0.545s-0.545-0.182-0.545-0.545V197.65c0-0.363,0.182-0.545,0.545-0.545
			S290.115,197.287,290.115,197.65z"/>
		<path fill="#FFFFFF" d="M320.033,197.65v15.398c0,1.008-0.366,1.863-1.099,2.566s-1.603,1.055-2.61,1.055h-7.734
			c-0.363,0-0.545-0.182-0.545-0.545s0.182-0.545,0.545-0.545h7.734c0.715,0,1.33-0.249,1.846-0.747s0.773-1.093,0.773-1.784v-3.604
			c-0.727,0.715-1.6,1.072-2.619,1.072h-7.734c-0.996,0-1.863-0.352-2.602-1.055s-1.107-1.559-1.107-2.566v-6.152
			c0-1.008,0.363-1.866,1.09-2.575s1.6-1.063,2.619-1.063h7.734c1.02,0,1.893,0.357,2.619,1.072v-0.527
			c0-0.363,0.182-0.545,0.545-0.545S320.033,197.287,320.033,197.65z M318.943,206.896v-6.152c0-0.703-0.258-1.304-0.773-1.802
			s-1.131-0.747-1.846-0.747h-7.734c-0.727,0-1.345,0.249-1.854,0.747s-0.765,1.099-0.765,1.802v6.152
			c0,0.691,0.258,1.286,0.773,1.784s1.131,0.747,1.846,0.747h7.734c0.727,0,1.345-0.249,1.854-0.747
			S318.943,207.588,318.943,206.896z"/>
		<path fill="#FFFFFF" d="M323.391,209.41h10.898c0.715,0,1.33-0.249,1.846-0.747s0.773-1.093,0.773-1.784s-0.255-1.286-0.765-1.784
			s-1.128-0.747-1.854-0.747h-7.734c-1.02,0-1.893-0.354-2.619-1.063s-1.09-1.562-1.09-2.558c0-1.008,0.369-1.863,1.107-2.566
			s1.605-1.055,2.602-1.055h7.734c0.363,0,0.545,0.182,0.545,0.545s-0.182,0.545-0.545,0.545h-7.734
			c-0.715,0-1.33,0.246-1.846,0.738s-0.773,1.09-0.773,1.793c0,0.691,0.255,1.286,0.765,1.784s1.128,0.747,1.854,0.747h7.734
			c1.02,0,1.893,0.354,2.619,1.063s1.09,1.562,1.09,2.558c0,1.008-0.366,1.863-1.099,2.566s-1.603,1.055-2.61,1.055h-10.898
			c-0.363,0-0.545-0.182-0.545-0.545S323.027,209.41,323.391,209.41z"/>
		<path fill="#FFFFFF" d="M352.395,197.105h1.213v-3.41c0-0.363,0.182-0.545,0.545-0.545s0.545,0.182,0.545,0.545v3.41h3.322
			c0.363,0,0.545,0.182,0.545,0.545s-0.182,0.545-0.545,0.545h-3.322v11.76c0,0.363-0.182,0.545-0.545,0.545
			s-0.545-0.182-0.545-0.545v-11.76h-1.213c-0.363,0-0.545-0.182-0.545-0.545S352.031,197.105,352.395,197.105z"/>
		<path fill="#FFFFFF" d="M375.967,200.727v6.152c0,0.996-0.363,1.849-1.09,2.558s-1.6,1.063-2.619,1.063h-7.734
			c-0.996,0-1.863-0.352-2.602-1.055s-1.107-1.559-1.107-2.566v-6.152c0-1.008,0.363-1.863,1.09-2.566s1.6-1.055,2.619-1.055h7.734
			c1.008,0,1.878,0.352,2.61,1.055S375.967,199.719,375.967,200.727z M374.877,200.727c0-0.703-0.258-1.301-0.773-1.793
			s-1.131-0.738-1.846-0.738h-7.734c-0.727,0-1.345,0.249-1.854,0.747s-0.765,1.093-0.765,1.784v6.152
			c0,0.691,0.258,1.286,0.773,1.784s1.131,0.747,1.846,0.747h7.734c0.727,0,1.345-0.249,1.854-0.747s0.765-1.093,0.765-1.784
			V200.727z"/>
		<path fill="#FFFFFF" d="M405.516,190.074c1.242,0,2.32,0.393,3.234,1.178s1.371,1.746,1.371,2.883v12.305
			c0,1.137-0.457,2.098-1.371,2.883s-1.992,1.178-3.234,1.178H391.98c-0.363,0-0.545-0.182-0.545-0.545v-19.336
			c0-0.363,0.182-0.545,0.545-0.545H405.516z M405.516,191.164h-12.99v18.246h12.99c0.984,0,1.816-0.296,2.496-0.888
			s1.02-1.286,1.02-2.083v-12.305c0-0.797-0.34-1.491-1.02-2.083S406.5,191.164,405.516,191.164z"/>
		<path fill="#FFFFFF" d="M424.904,210.5h-7.734c-0.996,0-1.863-0.352-2.602-1.055s-1.107-1.559-1.107-2.566v-6.152
			c0-1.008,0.363-1.863,1.09-2.566s1.6-1.055,2.619-1.055h7.734c1.008,0,1.878,0.352,2.61,1.055s1.099,1.559,1.099,2.566
			c0,0.996-0.363,1.849-1.09,2.558s-1.6,1.063-2.619,1.063h-10.354v2.531c0,0.691,0.258,1.286,0.773,1.784s1.131,0.747,1.846,0.747
			h7.734c0.363,0,0.545,0.182,0.545,0.545S425.268,210.5,424.904,210.5z M414.551,203.258h10.354c0.727,0,1.345-0.249,1.854-0.747
			s0.765-1.093,0.765-1.784c0-0.703-0.258-1.301-0.773-1.793s-1.131-0.738-1.846-0.738h-7.734c-0.727,0-1.345,0.249-1.854,0.747
			s-0.765,1.093-0.765,1.784V203.258z"/>
		<path fill="#FFFFFF" d="M431.391,197.439l4.781,11.145l4.764-11.145c0.094-0.223,0.258-0.334,0.492-0.334
			c0.375,0,0.562,0.182,0.562,0.545c0,0.07-0.018,0.146-0.053,0.229l-5.273,12.305c-0.117,0.281-0.281,0.422-0.492,0.422
			c-0.223,0-0.393-0.141-0.51-0.422l-5.273-12.305c-0.035-0.082-0.053-0.158-0.053-0.229c0-0.363,0.188-0.545,0.562-0.545
			C431.133,197.105,431.297,197.217,431.391,197.439z"/>
		<path fill="#FFFFFF" d="M455.684,210.5h-7.734c-0.996,0-1.863-0.352-2.602-1.055s-1.107-1.559-1.107-2.566v-6.152
			c0-1.008,0.363-1.863,1.09-2.566s1.6-1.055,2.619-1.055h7.734c1.008,0,1.878,0.352,2.61,1.055s1.099,1.559,1.099,2.566
			c0,0.996-0.363,1.849-1.09,2.558s-1.6,1.063-2.619,1.063H445.33v2.531c0,0.691,0.258,1.286,0.773,1.784s1.131,0.747,1.846,0.747
			h7.734c0.363,0,0.545,0.182,0.545,0.545S456.047,210.5,455.684,210.5z M445.33,203.258h10.354c0.727,0,1.345-0.249,1.854-0.747
			s0.765-1.093,0.765-1.784c0-0.703-0.258-1.301-0.773-1.793s-1.131-0.738-1.846-0.738h-7.734c-0.727,0-1.345,0.249-1.854,0.747
			s-0.765,1.093-0.765,1.784V203.258z"/>
		<path fill="#FFFFFF" d="M462.205,209.955v-19.354c0-0.363,0.182-0.545,0.545-0.545s0.545,0.182,0.545,0.545v19.354
			c0,0.363-0.182,0.545-0.545,0.545S462.205,210.318,462.205,209.955z"/>
		<path fill="#FFFFFF" d="M481.787,200.727v6.152c0,0.996-0.363,1.849-1.09,2.558s-1.6,1.063-2.619,1.063h-7.734
			c-0.996,0-1.863-0.352-2.602-1.055s-1.107-1.559-1.107-2.566v-6.152c0-1.008,0.363-1.863,1.09-2.566s1.6-1.055,2.619-1.055h7.734
			c1.008,0,1.878,0.352,2.61,1.055S481.787,199.719,481.787,200.727z M480.697,200.727c0-0.703-0.258-1.301-0.773-1.793
			s-1.131-0.738-1.846-0.738h-7.734c-0.727,0-1.345,0.249-1.854,0.747s-0.765,1.093-0.765,1.784v6.152
			c0,0.691,0.258,1.286,0.773,1.784s1.131,0.747,1.846,0.747h7.734c0.727,0,1.345-0.249,1.854-0.747s0.765-1.093,0.765-1.784
			V200.727z"/>
		<path fill="#FFFFFF" d="M485.127,217.004V197.65c0-0.363,0.182-0.545,0.545-0.545s0.545,0.182,0.545,0.545v0.527
			c0.738-0.715,1.611-1.072,2.619-1.072h7.734c1.02,0,1.893,0.354,2.619,1.063s1.09,1.562,1.09,2.558v6.17
			c0,1.008-0.366,1.863-1.099,2.566s-1.603,1.055-2.61,1.055h-7.734c-1.02,0-1.893-0.357-2.619-1.072v7.559
			c0,0.363-0.182,0.545-0.545,0.545S485.127,217.367,485.127,217.004z M486.217,200.727v6.17c0,0.691,0.255,1.286,0.765,1.784
			s1.128,0.747,1.854,0.747h7.734c0.715,0,1.33-0.249,1.846-0.747s0.773-1.093,0.773-1.784v-6.17c0-0.691-0.255-1.286-0.765-1.784
			s-1.128-0.747-1.854-0.747h-7.734c-0.715,0-1.33,0.249-1.846,0.747S486.217,200.035,486.217,200.727z"/>
		<path fill="#FFFFFF" d="M515.062,210.5h-7.734c-0.996,0-1.863-0.352-2.602-1.055s-1.107-1.559-1.107-2.566v-6.152
			c0-1.008,0.363-1.863,1.09-2.566s1.6-1.055,2.619-1.055h7.734c1.008,0,1.878,0.352,2.61,1.055s1.099,1.559,1.099,2.566
			c0,0.996-0.363,1.849-1.09,2.558s-1.6,1.063-2.619,1.063h-10.354v2.531c0,0.691,0.258,1.286,0.773,1.784s1.131,0.747,1.846,0.747
			h7.734c0.363,0,0.545,0.182,0.545,0.545S515.426,210.5,515.062,210.5z M504.709,203.258h10.354c0.727,0,1.345-0.249,1.854-0.747
			s0.765-1.093,0.765-1.784c0-0.703-0.258-1.301-0.773-1.793s-1.131-0.738-1.846-0.738h-7.734c-0.727,0-1.345,0.249-1.854,0.747
			s-0.765,1.093-0.765,1.784V203.258z"/>
		<path fill="#FFFFFF" d="M521.584,209.955V197.65c0-0.363,0.182-0.545,0.545-0.545s0.545,0.182,0.545,0.545v0.51
			c0.738-0.703,1.611-1.055,2.619-1.055h2.461c0.363,0,0.545,0.182,0.545,0.545s-0.182,0.545-0.545,0.545h-2.461
			c-0.715,0-1.33,0.246-1.846,0.738s-0.773,1.09-0.773,1.793v9.229c0,0.363-0.182,0.545-0.545,0.545
			S521.584,210.318,521.584,209.955z"/>
		<path fill="#FFFFFF" d="M530.566,209.41h10.898c0.715,0,1.33-0.249,1.846-0.747s0.773-1.093,0.773-1.784s-0.255-1.286-0.765-1.784
			s-1.128-0.747-1.854-0.747h-7.734c-1.02,0-1.893-0.354-2.619-1.063s-1.09-1.562-1.09-2.558c0-1.008,0.369-1.863,1.107-2.566
			s1.605-1.055,2.602-1.055h7.734c0.363,0,0.545,0.182,0.545,0.545s-0.182,0.545-0.545,0.545h-7.734
			c-0.715,0-1.33,0.246-1.846,0.738s-0.773,1.09-0.773,1.793c0,0.691,0.255,1.286,0.765,1.784s1.128,0.747,1.854,0.747h7.734
			c1.02,0,1.893,0.354,2.619,1.063s1.09,1.562,1.09,2.558c0,1.008-0.366,1.863-1.099,2.566s-1.603,1.055-2.61,1.055h-10.898
			c-0.363,0-0.545-0.182-0.545-0.545S530.203,209.41,530.566,209.41z"/>
	</g>
</g>
</svg>
